<svg width="509" height="111" viewBox="0 0 509 111" fill="none" xmlns="http://www.w3.org/2000/svg">
<path d="M118.837 28C126.815 28 131.545 23.0653 131.545 14.8835C131.545 6.72727 126.815 1.81818 119.016 1.81818H109.965V28H118.837ZM114.708 23.8963V5.92188H118.748C124.066 5.92188 126.84 8.88778 126.84 14.8835C126.84 20.9048 124.066 23.8963 118.607 23.8963H114.708ZM144.54 28.3835C149.116 28.3835 152.261 26.1463 153.08 22.733L148.759 22.2472C148.132 23.9091 146.598 24.7784 144.604 24.7784C141.612 24.7784 139.631 22.8097 139.592 19.4474H153.271V18.0284C153.271 11.1378 149.129 8.10795 144.297 8.10795C138.672 8.10795 135.003 12.2372 135.003 18.2969C135.003 24.4588 138.621 28.3835 144.54 28.3835ZM139.605 16.3281C139.746 13.8224 141.599 11.7131 144.361 11.7131C147.02 11.7131 148.81 13.6562 148.835 16.3281H139.605ZM172.706 13.554C172.067 10.2301 169.408 8.10795 164.806 8.10795C160.076 8.10795 156.854 10.4347 156.867 14.0653C156.854 16.929 158.618 18.821 162.39 19.6009L165.739 20.304C167.542 20.7003 168.385 21.429 168.385 22.5412C168.385 23.8835 166.928 24.8935 164.729 24.8935C162.607 24.8935 161.226 23.973 160.83 22.2088L156.317 22.6435C156.892 26.2486 159.922 28.3835 164.742 28.3835C169.651 28.3835 173.115 25.8395 173.128 22.1193C173.115 19.3196 171.313 17.6065 167.605 16.8011L164.256 16.0852C162.262 15.6378 161.469 14.9474 161.482 13.8097C161.469 12.4801 162.939 11.5597 164.87 11.5597C167.005 11.5597 168.13 12.723 168.488 14.0142L172.706 13.554ZM181.572 1.81818H176.944V28H181.572V1.81818ZM186.331 28H190.959V8.36364H186.331V28ZM188.658 5.5767C190.128 5.5767 191.33 4.4517 191.33 3.07102C191.33 1.67756 190.128 0.552556 188.658 0.552556C187.175 0.552556 185.973 1.67756 185.973 3.07102C185.973 4.4517 187.175 5.5767 188.658 5.5767ZM211.238 13.554C210.598 10.2301 207.939 8.10795 203.337 8.10795C198.607 8.10795 195.385 10.4347 195.398 14.0653C195.385 16.929 197.15 18.821 200.921 19.6009L204.27 20.304C206.073 20.7003 206.917 21.429 206.917 22.5412C206.917 23.8835 205.459 24.8935 203.26 24.8935C201.138 24.8935 199.757 23.973 199.361 22.2088L194.848 22.6435C195.424 26.2486 198.453 28.3835 203.273 28.3835C208.182 28.3835 211.647 25.8395 211.659 22.1193C211.647 19.3196 209.844 17.6065 206.137 16.8011L202.787 16.0852C200.793 15.6378 200 14.9474 200.013 13.8097C200 12.4801 201.471 11.5597 203.401 11.5597C205.536 11.5597 206.661 12.723 207.019 14.0142L211.238 13.554ZM224.169 28.3835C228.745 28.3835 231.89 26.1463 232.708 22.733L228.387 22.2472C227.761 23.9091 226.227 24.7784 224.233 24.7784C221.241 24.7784 219.26 22.8097 219.221 19.4474H232.9V18.0284C232.9 11.1378 228.758 8.10795 223.926 8.10795C218.301 8.10795 214.632 12.2372 214.632 18.2969C214.632 24.4588 218.25 28.3835 224.169 28.3835ZM219.234 16.3281C219.375 13.8224 221.228 11.7131 223.99 11.7131C226.649 11.7131 228.439 13.6562 228.464 16.3281H219.234ZM245.745 35.3636H250.373V24.9062H250.565C251.293 26.3381 252.815 28.3452 256.19 28.3452C260.817 28.3452 264.282 24.6761 264.282 18.2074C264.282 11.6619 260.715 8.10795 256.177 8.10795C252.712 8.10795 251.268 10.1918 250.565 11.6108H250.296V8.36364H245.745V35.3636ZM250.283 18.1818C250.283 14.3722 251.92 11.9048 254.898 11.9048C257.979 11.9048 259.565 14.5256 259.565 18.1818C259.565 21.8636 257.954 24.5483 254.898 24.5483C251.945 24.5483 250.283 21.9915 250.283 18.1818ZM273.896 28.3963C276.977 28.3963 278.817 26.9517 279.661 25.3026H279.815V28H284.263V14.858C284.263 9.66761 280.032 8.10795 276.286 8.10795C272.157 8.10795 268.987 9.94886 267.964 13.5284L272.285 14.142C272.745 12.7997 274.049 11.6491 276.312 11.6491C278.46 11.6491 279.636 12.7486 279.636 14.679V14.7557C279.636 16.0852 278.242 16.1491 274.778 16.5199C270.968 16.929 267.325 18.0668 267.325 22.4901C267.325 26.3509 270.15 28.3963 273.896 28.3963ZM275.097 24.9957C273.167 24.9957 271.786 24.1136 271.786 22.4134C271.786 20.6364 273.333 19.8949 275.404 19.6009C276.619 19.4347 279.048 19.1278 279.648 18.642V20.956C279.648 23.142 277.884 24.9957 275.097 24.9957ZM288.917 28H293.545V16.456C293.545 13.9631 295.424 12.1989 297.968 12.1989C298.748 12.1989 299.719 12.3395 300.116 12.4673V8.21023C299.694 8.13352 298.965 8.08239 298.454 8.08239C296.204 8.08239 294.325 9.3608 293.609 11.6364H293.404V8.36364H288.917V28ZM308.454 28.3963C311.535 28.3963 313.376 26.9517 314.22 25.3026H314.373V28H318.822V14.858C318.822 9.66761 314.591 8.10795 310.845 8.10795C306.716 8.10795 303.545 9.94886 302.522 13.5284L306.843 14.142C307.304 12.7997 308.608 11.6491 310.87 11.6491C313.018 11.6491 314.194 12.7486 314.194 14.679V14.7557C314.194 16.0852 312.801 16.1491 309.336 16.5199C305.527 16.929 301.883 18.0668 301.883 22.4901C301.883 26.3509 304.708 28.3963 308.454 28.3963ZM309.656 24.9957C307.725 24.9957 306.345 24.1136 306.345 22.4134C306.345 20.6364 307.892 19.8949 309.963 19.6009C311.177 19.4347 313.606 19.1278 314.207 18.642V20.956C314.207 23.142 312.443 24.9957 309.656 24.9957ZM332.61 28H337.161V24.9062H337.429C338.158 26.3381 339.679 28.3452 343.054 28.3452C347.682 28.3452 351.147 24.6761 351.147 18.2074C351.147 11.6619 347.58 8.10795 343.042 8.10795C339.577 8.10795 338.132 10.1918 337.429 11.6108H337.238V1.81818H332.61V28ZM337.148 18.1818C337.148 14.3722 338.784 11.9048 341.763 11.9048C344.844 11.9048 346.429 14.5256 346.429 18.1818C346.429 21.8636 344.819 24.5483 341.763 24.5483C338.81 24.5483 337.148 21.9915 337.148 18.1818ZM360.732 28.3963C363.812 28.3963 365.653 26.9517 366.497 25.3026H366.651V28H371.099V14.858C371.099 9.66761 366.868 8.10795 363.122 8.10795C358.993 8.10795 355.822 9.94886 354.8 13.5284L359.121 14.142C359.581 12.7997 360.885 11.6491 363.148 11.6491C365.295 11.6491 366.472 12.7486 366.472 14.679V14.7557C366.472 16.0852 365.078 16.1491 361.614 16.5199C357.804 16.929 354.161 18.0668 354.161 22.4901C354.161 26.3509 356.986 28.3963 360.732 28.3963ZM361.933 24.9957C360.003 24.9957 358.622 24.1136 358.622 22.4134C358.622 20.6364 360.169 19.8949 362.24 19.6009C363.455 19.4347 365.884 19.1278 366.484 18.642V20.956C366.484 23.142 364.72 24.9957 361.933 24.9957ZM375.753 28H380.381V8.36364H375.753V28ZM378.08 5.5767C379.55 5.5767 380.751 4.4517 380.751 3.07102C380.751 1.67756 379.55 0.552556 378.08 0.552556C376.597 0.552556 375.395 1.67756 375.395 3.07102C375.395 4.4517 376.597 5.5767 378.08 5.5767ZM388.924 8.36364H384.015L389.844 18.1818L383.861 28H388.77L392.887 20.9304L397.042 28H401.912L395.891 18.1818L401.81 8.36364H396.914L392.887 15.6122L388.924 8.36364ZM413.217 28.3835C418.969 28.3835 422.626 24.331 422.626 18.2585C422.626 12.1733 418.969 8.10795 413.217 8.10795C407.464 8.10795 403.808 12.1733 403.808 18.2585C403.808 24.331 407.464 28.3835 413.217 28.3835ZM413.242 24.6761C410.059 24.6761 408.499 21.8381 408.499 18.2457C408.499 14.6534 410.059 11.777 413.242 11.777C416.374 11.777 417.934 14.6534 417.934 18.2457C417.934 21.8381 416.374 24.6761 413.242 24.6761ZM429.404 28.2812C430.913 28.2812 432.204 27.0284 432.217 25.4688C432.204 23.9347 430.913 22.6818 429.404 22.6818C427.845 22.6818 426.579 23.9347 426.592 25.4688C426.579 27.0284 427.845 28.2812 429.404 28.2812ZM153.787 74H170.062V70.0241H158.53V47.8182H153.787V74ZM174.178 74H191.309V70.0241H178.921V62.8778H190.324V58.902H178.921V51.794H191.206V47.8182H174.178V74ZM194.895 51.794H202.987V74H207.692V51.794H215.784V47.8182H194.895V51.794ZM223.531 47.8182H219.849V50.4517C219.849 52.5355 219.031 54.1335 218.098 55.5398L220.246 56.9332C222.125 55.3736 223.531 52.6889 223.531 50.4261V47.8182ZM241.739 55.0156H246.303C246.213 50.5923 242.442 47.4602 236.868 47.4602C231.371 47.4602 227.242 50.554 227.254 55.1818C227.254 58.9403 229.926 61.1009 234.235 62.2131L237.213 62.9801C240.039 63.696 241.905 64.5781 241.918 66.6108C241.905 68.848 239.783 70.3438 236.689 70.3438C233.723 70.3438 231.422 69.0142 231.23 66.2656H226.564C226.756 71.4688 230.629 74.3963 236.727 74.3963C243.004 74.3963 246.648 71.2642 246.661 66.6491C246.648 62.1108 242.902 60.0398 238.965 59.1065L236.51 58.4929C234.362 57.9815 232.036 57.0739 232.061 54.8878C232.074 52.919 233.838 51.4744 236.804 51.4744C239.629 51.4744 241.496 52.7912 241.739 55.0156ZM274.047 55.0156H278.611C278.522 50.5923 274.751 47.4602 269.177 47.4602C263.68 47.4602 259.55 50.554 259.563 55.1818C259.563 58.9403 262.235 61.1009 266.543 62.2131L269.522 62.9801C272.347 63.696 274.214 64.5781 274.226 66.6108C274.214 68.848 272.091 70.3438 268.998 70.3438C266.032 70.3438 263.731 69.0142 263.539 66.2656H258.873C259.064 71.4688 262.938 74.3963 269.036 74.3963C275.313 74.3963 278.956 71.2642 278.969 66.6491C278.956 62.1108 275.211 60.0398 271.273 59.1065L268.819 58.4929C266.671 57.9815 264.344 57.0739 264.37 54.8878C264.383 52.919 266.147 51.4744 269.113 51.4744C271.938 51.4744 273.805 52.7912 274.047 55.0156ZM283.198 74H287.941V62.8778H300.073V74H304.828V47.8182H300.073V58.902H287.941V47.8182H283.198V74ZM313.349 74L315.509 67.544H325.353L327.526 74H332.589L323.359 47.8182H317.504L308.286 74H313.349ZM316.788 63.7344L320.329 53.1875H320.534L324.075 63.7344H316.788ZM336.037 74H340.78V66.2017L343.682 62.7756L351.493 74H357.195L346.981 59.5668L357.106 47.8182H351.314L341.1 59.848H340.78V47.8182H336.037V74ZM360.401 74H377.531V70.0241H365.144V62.8778H376.547V58.902H365.144V51.794H377.429V47.8182H360.401V74ZM387.727 47.8182H382.779L383.188 66.304H387.305L387.727 47.8182ZM385.247 74.2812C386.755 74.2812 388.046 73.0284 388.059 71.4688C388.046 69.9347 386.755 68.6818 385.247 68.6818C383.687 68.6818 382.421 69.9347 382.434 71.4688C382.421 73.0284 383.687 74.2812 385.247 74.2812Z" fill="#AACBFF"/>
<line y1="110" x2="509" y2="110" stroke="#A9CBFE" stroke-width="2"/>
</svg>